<?xml version="1.0" encoding="UTF-8"?>
<svg id="Layer_1" data-name="Layer 1" xmlns="http://www.w3.org/2000/svg" version="1.1" viewBox="0 0 255 48.7">
  <defs>
    <style>
      .cls-1 {
        fill: #005baa;
      }

      .cls-1, .cls-2, .cls-3 {
        stroke-width: 0px;
      }

      .cls-2 {
        fill: #8dc63f;
      }

      .cls-3 {
        fill: #fff;
      }
    </style>
  </defs>
  <path class="cls-1" d="M47.9,35.1h-10.3V12.6h11c-5.4,2.2-8.5,6.4-8.5,11.2,0,4.8,2.4,9,7.8,11.2M25.7,35.1h10.3V12.6h-10.7c5.4,2.2,8.2,6.4,8.2,11.2s-2.4,9-7.8,11.2M64.5,13.8c-15.4-3.9-22,5-22,10.2,0,4,4.5,14,21.5,10.7.2-.2,1.3-5.3,1.7-6.2-9.1,8.2-17.3.6-16.9-4.8.3-4.4,5.8-11.8,16.6-4.5,0,0-.8-5.5-.8-5.3M96.3,28.4c-.6.9-3.5,3.4-13.1,2.9,0-.2,0-14,0-14,0,0,0-2.1,1.3-3.7h-7.3c1.3,1.7,1.3,3.7,1.3,3.7v13.6s0,2.1-1.3,3.7h17.3s1.9-6.1,1.9-6.2M113.7,17.3s0-2.1,1.3-3.7h-7c1.3,1.7,1.3,3.7,1.3,3.7v13.6s0,2.1-1.3,3.7h7c-1.3-1.7-1.3-3.7-1.3-3.7v-13.6h0ZM149.7,13.8c-15.4-3.9-22,5-22,10.2,0,4,4.5,14,21.5,10.7.2-.2,1.3-5.3,1.7-6.2-9.1,8.2-17.3.6-16.9-4.8.3-4.4,5.8-11.8,16.6-4.5,0,0-.8-5.5-.8-5.3M169.6,24.4s11.2,8.8,7.2,10.5h11.2c-3.2-.6-12.5-11.5-12.6-11.6,0-.1,8.7-8.9,11.7-9.7h-10.1s1.3,1.5,0,2.9c-1.8,1.9-5.8,5.4-7.5,6.3v-5.5s0-2.1,1.4-3.7h-7.6c1.4,1.7,1.4,3.7,1.4,3.7v13.6s0,2.1-1.4,3.7h7.6c-1.4-1.7-1.4-3.7-1.4-3.7v-6.6M217.7,15.4c-8.5-4.7-20.3-2.4-20.8,3.2-.6,7.8,17.9,7.3,16.1,11.8-2,5-15.6-1.1-16.6-3.1,0,0,1.5,5.2,1.7,5.8,20.9,7.9,24.6-5.8,17.1-9.3-6.7-3.2-11.4-2.5-11.6-5.6-.1-2.4,10.1-3.7,15,2.9,0,0-1.1-5.6-1-5.6M14.1,22.1s-.2,0-.3.2c-.1,0-.3.2-.3.2,0,0,0,.3,0,.4,0,.1.1.3.1.3,0,0,.2-.2.3-.3s.3-.3.3-.3l-.3-.6h0ZM10.3,16s.3,0,.6.2c.4.2.8.9.8.9,0,0,.4-.6.7-.8,1-.7,1.8-.5,2.8-1.2.3-.3.6-.6.9-1,.5-.7.6-.5.6-.5,0,0,0,.4.1.5.6.4,1.5-.3,2.1-.8.5-.5.3-.8.3-.8,0,0,.5-.1,1.3.3,1.7,1.1,2.3,2.8,2.8,2,.2-.3,0-.8,0-.8,0,0,.6,0,.9.1,1.3.3,2.6,2,2.6,2,.3-.2.3-.7.3-.7,0,0,.3.1.7.7.9,1.1.5,2,.8,2.2.3.2.5-1.4.5-1.4,0,0,1.4,2.4,1.6,4.5.3,2.5,0,4.1-1.2,6.3-1.3,2.8-2.8,4.1-5.5,5.7-2.5,1.5-7.3,1.6-7.3,1.6,0,0-.2-1.2,0-2,0-1,.7-2.5.7-2.5l2-4.8s.2-.7-.3-2c-.3-.7-1-1.4-1-1.4,0,0,.3,1.2-.4,2.4-.5.9-1.7,1.4-1.7,1.4,0,0-.4,1-.6,1.7,0,.4-.1,1-.1,1l-.4.6-.8.3.2-1.8s-.2.2-.4.6c-.3.6-.6,1.4-.6,1.4h-1.3s-.2-.5-.3-.8-.2-.8-.2-.8v-4.7s-.5-.2-.8-.6c0,0-.2-.5-.3-.8,0-.3-.3-.9-.3-.9L0,20.7h0c0-.1,9.1-1.1,10-1.3.3,0,.5-.8.5-1.1.1-1-.2-2.4-.2-2.4"/>
  <path class="cls-2" d="M239.8,39.6c8.4,0,15.2-6.8,15.2-15.3s-6.8-15.3-15.2-15.3-15.2,6.8-15.2,15.3,6.8,15.3,15.2,15.3"/>
  <rect class="cls-3" x="236.2" y="13.2" width="7.1" height="22.2"/>
  <rect class="cls-3" x="228.6" y="21.1" width="22.4" height="6.4"/>
</svg>