<?xml version="1.0" encoding="UTF-8"?>
<svg id="Layer_1" data-name="Layer 1" xmlns="http://www.w3.org/2000/svg" version="1.1" viewBox="0 0 242.7 38.6">
  <defs>
    <style>
      .cls-1 {
        fill: #ec1b24;
      }

      .cls-1, .cls-2, .cls-3 {
        stroke-width: 0px;
      }

      .cls-2 {
        fill: #157946;
      }

      .cls-3 {
        fill: #fff;
      }
    </style>
  </defs>
  <path id="path46293" class="cls-1" d="M0,.8h193.9v37.1H0V.8"/>
  <path id="path46321" class="cls-3" d="M137.8,7.4c1.7,0,2.7.6,4.3,2.6l11.6,16.6c.6.9.6,2.3-.5,3.2-.9.8-2.6.9-3.5-.3l-2.8-3.8h-18.3l-2.8,3.9c-1,1.2-2.2,1.2-3.3.4-1.1-.8-1.4-2.2-.7-3.2l11.7-16.7c1.5-2.1,2.7-2.6,4.3-2.6h0ZM138.5,13.6c-.3-.4-.4-.5-.7-.5s-.5.2-.8.5c-.4.5-5.1,7.4-5.1,7.4h11.7s-4.5-6.5-5.1-7.4"/>
  <path id="path46349" class="cls-3" d="M58.7,7.5h16.7c4.1,0,4.5,4.8,4.5,4.8h-20.6c-1,0-2,.8-2,2.1s1.2,2.2,1.9,2.2h14.5c2.9,0,7,2.4,7,6.5s-4.8,7.3-6.4,7.3h-17c-5.1,0-4.8-4.8-4.8-4.8h21.1c.8,0,2.1-.8,2.1-2.1s-1.1-2.1-1.9-2.1h-14.2c-4,0-7.2-3-7.2-7.1s3.9-6.9,6.2-6.9"/>
  <path id="path46377" class="cls-3" d="M165.8,7.4h17.3c2.6,0,6.7,2.1,6.7,7.2v.3c0,2.7-1.7,5.1-4.1,6.3,0,0,.2.3,3.9,5.3.5.7.5,2.2-.5,3.2-1,.9-2.7,1-3.5,0-1.2-1.4-2.5-3.2-6.3-7.9h-6.7c-1.9,0-4.5-1.5-4.5-4.9h14.6c.8,0,2.1-.8,2.1-2.3s-1.2-2.3-2.1-2.3h-16.1v15.3c0,1.7-1.3,2.8-2.6,2.8s-2.6-1.2-2.6-2.7v-15.5c0-2.6,2.7-4.7,4.7-4.7"/>
  <path id="path46405" class="cls-3" d="M94.7,7.5h17.3c2.6,0,6.7,2.1,6.7,7.2v.3c0,2.7-1.7,5.1-4.1,6.3,0,0-1.2.4-2.4.5h-10.8c-1.9,0-4.4-1.6-4.4-4.9h14.4c.8,0,2.1-.7,2.1-2.2s-1.2-2.3-2.1-2.3h-16.1v15.3c0,1.7-1.3,2.8-2.7,2.8s-2.6-1.2-2.6-2.7v-15.5c0-2.6,2.8-4.7,4.7-4.7"/>
  <path id="path46433" class="cls-2" d="M203.1,19.8c0,7.1,3.6,13.5,9.9,16.6,5.9,2.9,13.8,2.9,19.8,0,5.9-2.9,9.9-9.5,9.9-16.6,0-10.9-8.7-19.8-19.8-19.8s-19.8,8.8-19.8,19.8"/>
  <path id="path46461" class="cls-3" d="M222.9,5.2c-2,6.7-7.9,16.6-12.2,21.5h10.3v2.9c0,1.7-1.3,3.4-3.2,3.4-2.7,0-6-1.3-8-4.7-1.5-2.5-2.5-4.5-2.5-8.4,0-8.6,7-15.8,15.8-15.8s15.8,7.4,15.8,15.8-1.8,7.4-2.5,8.4c-2.2,3.5-5.5,4.7-8,4.8-1.8,0-3.4-1.3-3.4-3.4v-2.9h10.4c-4.5-4.8-10.4-14.7-12.4-21.5"/>
</svg>