<?xml version="1.0" encoding="utf-8"?>
<!-- Generator: Adobe Illustrator 28.3.0, SVG Export Plug-In . SVG Version: 6.00 Build 0)  -->
<svg version="1.1" id="Layer_1" xmlns="http://www.w3.org/2000/svg" xmlns:xlink="http://www.w3.org/1999/xlink" x="0px" y="0px"
	 viewBox="0 0 99.7 33.3" style="enable-background:new 0 0 99.7 33.3;" xml:space="preserve">
<style type="text/css">
	.st0{fill:url(#SVGID_1_);}
	.st1{fill:#FFFFFF;}
</style>
<g>
	<linearGradient id="SVGID_1_" gradientUnits="userSpaceOnUse" x1="0" y1="13.8352" x2="31.1653" y2="13.8352">
		<stop  offset="0" style="stop-color:#00B2E3"/>
		<stop  offset="4.505490e-03" style="stop-color:#00B2E3"/>
		<stop  offset="1" style="stop-color:#002E6D"/>
	</linearGradient>
	<path class="st0" d="M16.2,0c-0.2,0-0.3,0.1-0.3,0.2l-3.6,9.2l-11.9,0C0.2,9.4,0.1,9.5,0,9.7c0,0.1,0,0.3,0.1,0.4l9.6,7L6.4,27.2
		c-0.1,0.2,0,0.3,0.2,0.4c0.1,0,0.1,0,0.2,0c0.1,0,0.2,0,0.3-0.1c0.6-0.7,1.2-1.5,1.8-2.2c1.3-1.5,3.1-3.9,5.4-6.3l-4.9,3.6l1.9-5.8
		c0-0.1,0-0.3-0.1-0.4l-7.6-5.5H13c0.2,0,0.3-0.1,0.3-0.2l2.9-7.2l2.9,7.2c0,0.1,0.2,0.2,0.3,0.2l6,0L21,14.1
		c2.7-1.4,5.4-2.2,7.2-2.9c0.9-0.4,1.8-0.7,2.7-1c0.2-0.1,0.3-0.2,0.2-0.4c0-0.2-0.2-0.3-0.3-0.3l-10.6,0l-3.7-9.2
		C16.5,0.1,16.3,0,16.2,0L16.2,0z"/>
	<path class="st1" d="M29.7,21c0.1,0,0.1,0,0.2,0c1.5,0,2.9,0,4.4,0c0.5,0,1-0.1,1.5-0.2c0.5-0.1,0.7-0.5,0.7-1c0-0.5-0.2-0.9-0.7-1
		c-0.5-0.1-0.9-0.1-1.4-0.2c-1.4,0-2.9,0-4.3,0h-0.3V21z M38.8,24.7c-0.8,0-1.5,0-2.3,0c-0.1,0-0.2-0.1-0.3-0.1
		c-1.1-0.7-2.3-1.4-3.4-2.1c-0.2-0.1-0.4-0.2-0.7-0.2c-0.8,0-1.7,0-2.5,0v2.4h-1.6v-7.3h0.3c1.9,0,3.9,0,5.8,0c0.6,0,1.3,0,1.9,0.1
		c0.8,0.1,1.5,0.5,1.8,1.4c0.3,0.9,0.2,1.8-0.5,2.6c-0.5,0.4-1.1,0.6-1.7,0.7c-0.2,0-0.4,0-0.7,0.1C36.3,23,37.6,23.8,38.8,24.7
		C38.9,24.6,38.8,24.6,38.8,24.7"/>
	<rect x="40.6" y="17.4" class="st1" width="1.6" height="7.3"/>
	<path class="st1" d="M51.5,23.7c0.1-0.1,0.1-0.2,0.2-0.2c1.4-2,2.7-3.9,4.1-5.9c0.1-0.1,0.2-0.2,0.4-0.2c0.7,0,1.4,0,2.1,0
		c0.1,0,0.2,0,0.3,0v7.3h-1.6v-6c0,0,0,0-0.1,0c0,0.1-0.1,0.1-0.1,0.2c-1.3,1.9-2.6,3.8-3.9,5.7c-0.1,0.1-0.2,0.2-0.4,0.2
		c-0.6,0-1.2,0-1.7,0c-0.2,0-0.3-0.1-0.3-0.2c-1.3-1.9-2.6-3.7-3.9-5.6c-0.1-0.1-0.1-0.2-0.2-0.3v6h-1.6v-7.3h1c0.5,0,1,0,1.4,0
		c0.2,0,0.3,0.1,0.4,0.2c1.3,2,2.7,3.9,4.1,5.9C51.4,23.5,51.5,23.6,51.5,23.7"/>
	<polygon class="st1" points="62.1,18.6 62.1,20.3 69.8,20.3 69.8,21.6 62.1,21.6 62.1,23.3 69.9,23.3 69.9,24.6 60.5,24.6 
		60.5,17.4 69.9,17.4 69.9,18.6 	"/>
	<path class="st1" d="M73.7,18.6v4.7c0.1,0,0.1,0,0.2,0c1.2,0,2.4,0,3.5,0c0.6,0,1.1-0.1,1.7-0.1c0.6-0.1,1.2-0.3,1.5-0.8
		c0.4-0.6,0.4-1.2,0.3-1.9c-0.1-0.8-0.5-1.3-1.3-1.6c-0.4-0.1-0.8-0.2-1.2-0.2c-1.4,0-2.8,0-4.1-0.1C74.1,18.6,74,18.6,73.7,18.6
		 M72.1,24.6v-7.3c0.1,0,0.2,0,0.2,0c1.7,0,3.4,0,5.2,0c1.1,0,2.2,0.1,3.2,0.5c1.2,0.5,1.8,1.5,1.9,2.7c0.1,0.9,0,1.7-0.5,2.4
		c-0.6,0.9-1.5,1.2-2.4,1.4c-0.7,0.1-1.4,0.2-2.1,0.2c-1.7,0-3.5,0-5.2,0C72.3,24.6,72.2,24.6,72.1,24.6"/>
	<path class="st1" d="M93.5,18.2c-0.8,1.2-1.5,2.3-2.3,3.4h4.7C95.1,20.5,94.3,19.4,93.5,18.2 M87.4,24.7c0.1-0.1,0.1-0.2,0.2-0.3
		c1.6-2.3,3.2-4.6,4.7-6.9c0.1-0.1,0.2-0.2,0.4-0.2c0.6,0,1.2,0,1.8,0c0.1,0,0.2,0.1,0.3,0.1c1.6,2.4,3.3,4.7,4.9,7.1
		c0,0,0,0.1,0.1,0.1c-0.6,0-1.2,0-1.8,0c-0.1,0-0.1-0.1-0.2-0.1c-0.3-0.5-0.6-0.9-0.9-1.4c-0.1-0.1-0.2-0.2-0.4-0.2c-2,0-4,0-6,0
		c-0.2,0-0.3,0.1-0.4,0.2c-0.3,0.5-0.6,0.9-1,1.4c-0.1,0.1-0.2,0.1-0.2,0.1C88.5,24.7,88,24.7,87.4,24.7"/>
	<path class="st1" d="M18.6,21c0.1,0,0.1,0,0.2,0c1.5,0,3.1,0,4.6,0c0.4,0,0.7-0.1,1.1-0.1c0.5-0.1,0.7-0.5,0.7-1
		c0-0.6-0.2-1-0.7-1.1c-0.3-0.1-0.6-0.1-0.9-0.1c-1.6,0-3.2,0-4.9,0c-0.1,0-0.1,0-0.2,0V21z M18.6,24.6H17v-7.3h0.3c2,0,3.9,0,5.9,0
		c0.6,0,1.2,0,1.7,0.1c1.4,0.3,2,1.2,1.9,2.6c0,0.4-0.2,0.7-0.3,1.1c-0.3,0.7-1,0.9-1.6,1c-0.6,0.1-1.2,0.1-1.9,0.1
		c-1.3,0-2.7,0-4,0h-0.3V24.6z"/>
	<rect x="84.4" y="17.4" class="st1" width="1.6" height="7.3"/>
	<path class="st1" d="M57.2,30.8v-1.3h4.9v-0.6h-5.5v4.3h5.5v-0.6h-4.9v-1.4H62v-0.5H57.2z M49.8,29.4h2.9c0.9,0,1.2,0.1,1.4,0.3
		c0.1,0.1,0.2,0.3,0.2,0.6c0,0.2-0.1,0.4-0.2,0.6c-0.2,0.2-0.5,0.3-1.4,0.3h-2.9V29.4z M49.1,28.9v4.3h0.7v-1.5h2.1l2.5,1.5h1v0
		l-2.5-1.5c1,0,1.4-0.2,1.7-0.5c0.2-0.2,0.3-0.6,0.3-0.9s-0.1-0.7-0.3-0.9c-0.3-0.3-0.7-0.5-1.9-0.5H49.1z M44.3,29.3
		c1.3,0,2,0.3,2.3,0.6c0.3,0.3,0.4,0.6,0.4,1.1c0,0.5-0.2,0.9-0.4,1.1c-0.3,0.3-1,0.6-2.3,0.6c-1.3,0-2-0.3-2.3-0.6
		c-0.3-0.3-0.4-0.6-0.4-1.1c0-0.5,0.1-0.9,0.4-1.2C42.3,29.6,43,29.3,44.3,29.3 M44.3,28.8c-1.6,0-2.4,0.4-2.8,0.8
		c-0.4,0.4-0.6,0.9-0.6,1.5c0,0.6,0.2,1.1,0.6,1.5c0.4,0.4,1.2,0.8,2.8,0.8c1.6,0,2.4-0.4,2.8-0.8c0.4-0.4,0.6-0.9,0.6-1.5
		c0-0.6-0.2-1.1-0.6-1.5C46.7,29.1,45.9,28.8,44.3,28.8 M40.2,28.9h-6.4v0.6h2.9v3.7h0.7v-3.7h2.9V28.9z M30.3,32.8
		c-1.1,0-2.4-0.2-3-0.5v0.6c0.7,0.3,1.8,0.5,3,0.5c1.7,0,2.2-0.3,2.5-0.5c0.2-0.2,0.3-0.5,0.3-0.8c0-0.3-0.1-0.5-0.3-0.7
		c-0.3-0.3-0.7-0.4-2.6-0.5c-1.5-0.1-1.9-0.2-2.1-0.3c-0.1-0.1-0.1-0.2-0.1-0.4c0-0.2,0-0.3,0.1-0.4c0.2-0.2,0.6-0.3,1.9-0.3
		c1,0,2,0.2,2.7,0.5v-0.6c-0.6-0.2-1.5-0.4-2.7-0.4c-1.5,0-2.1,0.2-2.4,0.5c-0.2,0.2-0.3,0.5-0.3,0.8c0,0.3,0.1,0.5,0.2,0.7
		c0.3,0.3,0.8,0.4,2.5,0.5c1.7,0.1,2,0.2,2.1,0.3c0.1,0.1,0.1,0.2,0.1,0.4c0,0.2,0,0.3-0.2,0.4C32.1,32.6,31.7,32.8,30.3,32.8
		 M20.6,28.9h-1v4.3h0.7v-3.8l4.5,3.8h0.9v-4.3h-0.7v3.7L20.6,28.9z M17.8,28.9h-0.7v4.3h0.7V28.9z"/>
</g>
</svg>
