<?xml version="1.0" encoding="UTF-8"?>
<svg id="Layer_1" data-name="Layer 1" xmlns="http://www.w3.org/2000/svg" xmlns:xlink="http://www.w3.org/1999/xlink" version="1.1" viewBox="0 0 99.7 33.3">
  <defs>
    <style>
      .cls-1 {
        fill: url(#linear-gradient);
      }

      .cls-1, .cls-2 {
        stroke-width: 0px;
      }

      .cls-2 {
        fill: #4c4d4f;
      }
    </style>
    <linearGradient id="linear-gradient" x1="0" y1="21.1" x2="31.1" y2="21.1" gradientTransform="translate(0 34.9) scale(1 -1)" gradientUnits="userSpaceOnUse">
      <stop offset="0" stop-color="#00b2e3"/>
      <stop offset="0" stop-color="#00b2e3"/>
      <stop offset="1" stop-color="#002e6d"/>
    </linearGradient>
  </defs>
  <path class="cls-1" d="M16.2,0c-.2,0-.3.1-.3.2l-3.6,9.2H.4c-.2,0-.3.1-.4.3,0,.1,0,.3.1.4l9.6,7-3.3,10.1c0,.2,0,.3.2.4h.2c0,0,.2,0,.3-.1.6-.7,1.2-1.5,1.8-2.2,1.3-1.5,3.1-3.9,5.4-6.3l-4.9,3.6,1.9-5.8c0-.1,0-.3-.1-.4l-7.6-5.5h9.4c.2,0,.3-.1.3-.2l2.9-7.2,2.9,7.2c0,.1.2.2.3.2h6l-4.4,3.2c2.7-1.4,5.4-2.2,7.2-2.9.9-.4,1.8-.7,2.7-1,.2-.1.3-.2.2-.4,0-.2-.2-.3-.3-.3h-10.6L16.5.3c0-.2-.2-.3-.3-.3h0Z"/>
  <path class="cls-2" d="M29.7,21h4.6c.5,0,1-.1,1.5-.2s.7-.5.7-1-.2-.9-.7-1-.9-.1-1.4-.2h-4.6v2.4h-.1ZM38.8,24.7h-2.3c0,0-.2-.1-.3-.1-1.1-.7-2.3-1.4-3.4-2.1-.2-.1-.4-.2-.7-.2h-2.5v2.4h-1.6v-7.3h6.1c.6,0,1.3,0,1.9.1.8.1,1.5.5,1.8,1.4s.2,1.8-.5,2.6c-.5.4-1.1.6-1.7.7-.2,0-.4,0-.7.1,1.4.7,2.7,1.5,3.9,2.4.1-.1,0-.1,0,0"/>
  <rect class="cls-2" x="40.6" y="17.4" width="1.6" height="7.3"/>
  <path class="cls-2" d="M51.5,23.7c0-.1,0-.2.2-.2,1.4-2,2.7-3.9,4.1-5.9,0-.1.2-.2.4-.2h2.4v7.3h-1.6v-6h0c0,.1,0,.1,0,.2-1.3,1.9-2.6,3.8-3.9,5.7,0,.1-.2.2-.4.2h-1.7c-.2,0-.3-.1-.3-.2-1.3-1.9-2.6-3.7-3.9-5.6,0-.1,0-.2-.2-.3v6h-1.6v-7.3h2.4c.2,0,.3.1.4.2,1.3,2,2.7,3.9,4.1,5.9-.3,0-.2,0-.2.2"/>
  <polygon class="cls-2" points="62.1 18.6 62.1 20.3 69.8 20.3 69.8 21.6 62.1 21.6 62.1 23.3 69.9 23.3 69.9 24.6 60.5 24.6 60.5 17.4 69.9 17.4 69.9 18.6 62.1 18.6"/>
  <path class="cls-2" d="M73.7,18.6v4.7h3.7c.6,0,1.1-.1,1.7-.1.6-.1,1.2-.3,1.5-.8.4-.6.4-1.2.3-1.9,0-.8-.5-1.3-1.3-1.6-.4-.1-.8-.2-1.2-.2-1.4,0-2.8,0-4.1-.1-.2,0-.3,0-.6,0M72.1,24.6v-7.3h5.4c1.1,0,2.2.1,3.2.5,1.2.5,1.8,1.5,1.9,2.7,0,.9,0,1.7-.5,2.4-.6.9-1.5,1.2-2.4,1.4-.7.1-1.4.2-2.1.2h-5.2c0,.1-.2.1-.3.1"/>
  <path class="cls-2" d="M93.5,18.2c-.8,1.2-1.5,2.3-2.3,3.4h4.7c-.8-1.1-1.6-2.2-2.4-3.4M87.4,24.7c0-.1,0-.2.2-.3,1.6-2.3,3.2-4.6,4.7-6.9,0-.1.2-.2.4-.2h1.8c0,0,.2.1.3.1,1.6,2.4,3.3,4.7,4.9,7.1,0,0,0,.1,0,.1h-1.8c0,0,0-.1-.2-.1-.3-.5-.6-.9-.9-1.4,0-.1-.2-.2-.4-.2h-6c-.2,0-.3.1-.4.2-.3.5-.6.9-1,1.4,0,.1-.2.1-.2.1-.4,0-.9,0-1.5,0"/>
  <path class="cls-2" d="M18.6,21h4.8c.4,0,.7-.1,1.1-.1.5-.1.7-.5.7-1s-.2-1-.7-1.1c-.3-.1-.6-.1-.9-.1h-5.1v2.3h0ZM18.6,24.6h-1.6v-7.3h6.2c.6,0,1.2,0,1.7.1,1.4.3,2,1.2,1.9,2.6,0,.4-.2.7-.3,1.1-.3.7-1,.9-1.6,1s-1.2.1-1.9.1h-4.3v2.4h-.1Z"/>
  <rect class="cls-2" x="84.4" y="17.4" width="1.6" height="7.3"/>
  <path class="cls-2" d="M57.2,30.8v-1.3h4.9v-.6h-5.5v4.3h5.5v-.6h-4.9v-1.4h4.8v-.5h-4.8ZM49.8,29.4h2.9c.9,0,1.2.1,1.4.3,0,.1.2.3.2.6s0,.4-.2.6c-.2.2-.5.3-1.4.3h-2.9v-1.8ZM49.1,28.9v4.3h.7v-1.5h2.1l2.5,1.5h1l-2.5-1.5c1,0,1.4-.2,1.7-.5s.3-.6.3-.9,0-.7-.3-.9c-.3-.3-.7-.5-1.9-.5,0,0-3.6,0-3.6,0ZM44.3,29.3c1.3,0,2,.3,2.3.6.3.3.4.6.4,1.1s-.2.9-.4,1.1c-.3.3-1,.6-2.3.6s-2-.3-2.3-.6-.4-.6-.4-1.1,0-.9.4-1.2c.3-.2,1-.5,2.3-.5M44.3,28.8c-1.6,0-2.4.4-2.8.8-.4.4-.6.9-.6,1.5s.2,1.1.6,1.5c.4.4,1.2.8,2.8.8s2.4-.4,2.8-.8.6-.9.6-1.5-.2-1.1-.6-1.5c-.4-.5-1.2-.8-2.8-.8M40.2,28.9h-6.4v.6h2.9v3.7h.7v-3.7h2.9v-.6h-.1ZM30.3,32.8c-1.1,0-2.4-.2-3-.5v.6c.7.3,1.8.5,3,.5,1.7,0,2.2-.3,2.5-.5.2-.2.3-.5.3-.8s0-.5-.3-.7c-.3-.3-.7-.4-2.6-.5-1.5-.1-1.9-.2-2.1-.3-.1-.1-.1-.2-.1-.4s0-.3.1-.4c.2-.2.6-.3,1.9-.3s2,.2,2.7.5v-.6c-.6-.2-1.5-.4-2.7-.4s-2.1.2-2.4.5-.3.5-.3.8.1.5.2.7c.3.3.8.4,2.5.5s2,.2,2.1.3c0,.1,0,.2,0,.4s0,.3-.2.4c.1,0-.3.2-1.7.2M20.6,28.9h-1v4.3h.7v-3.8l4.5,3.8h.9v-4.3h-.7v3.7l-4.4-3.7ZM17.8,28.9h-.7v4.3h.7v-4.3Z"/>
</svg>