<?xml version="1.0" encoding="utf-8"?>
<!-- Generator: Adobe Illustrator 28.3.0, SVG Export Plug-In . SVG Version: 6.00 Build 0)  -->
<svg version="1.1" id="Layer_1" xmlns="http://www.w3.org/2000/svg" xmlns:xlink="http://www.w3.org/1999/xlink" x="0px" y="0px"
	 viewBox="0 0 31.2 27.7" style="enable-background:new 0 0 31.2 27.7;" xml:space="preserve">
<style type="text/css">
	.st0{fill:url(#SVGID_1_);}
	.st1{fill:#FFFFFF;}
	.st2{fill:url(#SVGID_00000021835420878962739230000009351838097576466842_);}
</style>
<g>
	<linearGradient id="SVGID_1_" gradientUnits="userSpaceOnUse" x1="-31.3306" y1="-35.4643" x2="-0.1653" y2="-35.4643">
		<stop  offset="0" style="stop-color:#00B2E3"/>
		<stop  offset="4.505490e-03" style="stop-color:#00B2E3"/>
		<stop  offset="1" style="stop-color:#002E6D"/>
	</linearGradient>
	<path class="st0" d="M-15.1-49.3c-0.2,0-0.3,0.1-0.3,0.2l-3.6,9.2l-11.9,0c-0.2,0-0.3,0.1-0.3,0.2c0,0.1,0,0.3,0.1,0.4l9.6,7
		l-3.3,10.2c-0.1,0.2,0,0.3,0.2,0.4c0.1,0,0.1,0,0.2,0c0.1,0,0.2,0,0.3-0.1c0.6-0.7,1.2-1.5,1.8-2.2c1.3-1.5,3.1-3.9,5.4-6.3
		l-4.9,3.6l1.9-5.8c0-0.1,0-0.3-0.1-0.4l-7.6-5.5h9.4c0.2,0,0.3-0.1,0.3-0.2l2.9-7.2l2.9,7.2c0,0.1,0.2,0.2,0.3,0.2l6,0l-4.4,3.2
		c2.7-1.4,5.4-2.2,7.2-2.9c0.9-0.4,1.8-0.7,2.7-1c0.2-0.1,0.3-0.2,0.2-0.4c0-0.2-0.2-0.3-0.3-0.3l-10.6,0l-3.7-9.2
		C-14.9-49.2-15-49.3-15.1-49.3L-15.1-49.3z"/>
	<path class="st1" d="M-1.6-28.3c0.1,0,0.1,0,0.2,0c1.5,0,2.9,0,4.4,0c0.5,0,1-0.1,1.5-0.2c0.5-0.1,0.7-0.5,0.7-1
		c0-0.5-0.2-0.9-0.7-1c-0.5-0.1-0.9-0.1-1.4-0.2c-1.4,0-2.9,0-4.3,0h-0.3V-28.3z M7.5-24.6c-0.8,0-1.5,0-2.3,0
		c-0.1,0-0.2-0.1-0.3-0.1c-1.1-0.7-2.3-1.4-3.4-2.1c-0.2-0.1-0.4-0.2-0.7-0.2c-0.8,0-1.7,0-2.5,0v2.4h-1.6V-32H-3c1.9,0,3.9,0,5.8,0
		c0.6,0,1.3,0,1.9,0.1c0.8,0.1,1.5,0.5,1.8,1.4c0.3,0.9,0.2,1.8-0.5,2.6c-0.5,0.4-1.1,0.6-1.7,0.7c-0.2,0-0.4,0-0.7,0.1
		C5-26.3,6.2-25.5,7.5-24.6C7.5-24.7,7.5-24.7,7.5-24.6"/>
	<rect x="9.3" y="-31.9" class="st1" width="1.6" height="7.3"/>
	<path class="st1" d="M20.2-25.6c0.1-0.1,0.1-0.2,0.2-0.2c1.4-2,2.7-3.9,4.1-5.9c0.1-0.1,0.2-0.2,0.4-0.2c0.7,0,1.4,0,2.1,0
		c0.1,0,0.2,0,0.3,0v7.3h-1.6v-6c0,0,0,0-0.1,0c0,0.1-0.1,0.1-0.1,0.2c-1.3,1.9-2.6,3.8-3.9,5.7c-0.1,0.1-0.2,0.2-0.4,0.2
		c-0.6,0-1.2,0-1.7,0c-0.2,0-0.3-0.1-0.3-0.2c-1.3-1.9-2.6-3.7-3.9-5.6c-0.1-0.1-0.1-0.2-0.2-0.3v6h-1.6V-32h1c0.5,0,1,0,1.4,0
		c0.2,0,0.3,0.1,0.4,0.2c1.3,2,2.7,3.9,4.1,5.9C20.1-25.8,20.1-25.7,20.2-25.6"/>
	<polygon class="st1" points="30.7,-30.7 30.7,-29 38.5,-29 38.5,-27.7 30.7,-27.7 30.7,-26 38.6,-26 38.6,-24.7 29.1,-24.7 
		29.1,-31.9 38.6,-31.9 38.6,-30.7 	"/>
	<path class="st1" d="M42.4-30.7v4.7c0.1,0,0.1,0,0.2,0c1.2,0,2.4,0,3.5,0c0.6,0,1.1-0.1,1.7-0.1c0.6-0.1,1.2-0.3,1.5-0.8
		c0.4-0.6,0.4-1.2,0.3-1.9c-0.1-0.8-0.5-1.3-1.3-1.6c-0.4-0.1-0.8-0.2-1.2-0.2c-1.4,0-2.8,0-4.1-0.1C42.8-30.7,42.6-30.7,42.4-30.7
		 M40.8-24.7v-7.3c0.1,0,0.2,0,0.2,0c1.7,0,3.4,0,5.2,0c1.1,0,2.2,0.1,3.2,0.5c1.2,0.5,1.8,1.5,1.9,2.7c0.1,0.9,0,1.7-0.5,2.4
		c-0.6,0.9-1.5,1.2-2.4,1.4c-0.7,0.1-1.4,0.2-2.1,0.2c-1.7,0-3.5,0-5.2,0C40.9-24.7,40.9-24.7,40.8-24.7"/>
	<path class="st1" d="M62.2-31.1c-0.8,1.2-1.5,2.3-2.3,3.4h4.7C63.7-28.8,63-29.9,62.2-31.1 M56.1-24.6c0.1-0.1,0.1-0.2,0.2-0.3
		c1.6-2.3,3.2-4.6,4.7-6.9c0.1-0.1,0.2-0.2,0.4-0.2c0.6,0,1.2,0,1.8,0c0.1,0,0.2,0.1,0.3,0.1c1.6,2.4,3.3,4.7,4.9,7.1
		c0,0,0,0.1,0.1,0.1c-0.6,0-1.2,0-1.8,0c-0.1,0-0.1-0.1-0.2-0.1c-0.3-0.5-0.6-0.9-0.9-1.4c-0.1-0.1-0.2-0.2-0.4-0.2c-2,0-4,0-6,0
		c-0.2,0-0.3,0.1-0.4,0.2c-0.3,0.5-0.6,0.9-1,1.4c-0.1,0.1-0.2,0.1-0.2,0.1C57.1-24.6,56.6-24.6,56.1-24.6"/>
	<path class="st1" d="M-12.7-28.3c0.1,0,0.1,0,0.2,0c1.5,0,3.1,0,4.6,0c0.4,0,0.7-0.1,1.1-0.1c0.5-0.1,0.7-0.5,0.7-1
		c0-0.6-0.2-1-0.7-1.1c-0.3-0.1-0.6-0.1-0.9-0.1c-1.6,0-3.2,0-4.9,0c-0.1,0-0.1,0-0.2,0V-28.3z M-12.7-24.7h-1.6V-32h0.3
		c2,0,3.9,0,5.9,0c0.6,0,1.2,0,1.7,0.1c1.4,0.3,2,1.2,1.9,2.6c0,0.4-0.2,0.7-0.3,1.1c-0.3,0.7-1,0.9-1.6,1C-7.1-27-7.8-27-8.4-27
		c-1.3,0-2.7,0-4,0h-0.3V-24.7z"/>
	<rect x="53" y="-31.9" class="st1" width="1.6" height="7.3"/>
	<path class="st1" d="M25.9-18.5v-1.3h4.9v-0.6h-5.5v4.3h5.5v-0.6h-4.9V-18h4.8v-0.5H25.9z M18.5-19.8h2.9c0.9,0,1.2,0.1,1.4,0.3
		c0.1,0.1,0.2,0.3,0.2,0.6c0,0.2-0.1,0.4-0.2,0.6c-0.2,0.2-0.5,0.3-1.4,0.3h-2.9V-19.8z M17.8-20.4v4.3h0.7v-1.5h2.1l2.5,1.5h1v0
		l-2.5-1.5c1,0,1.4-0.2,1.7-0.5c0.2-0.2,0.3-0.6,0.3-0.9c0-0.4-0.1-0.7-0.3-0.9c-0.3-0.3-0.7-0.5-1.9-0.5H17.8z M13-20
		c1.3,0,2,0.3,2.3,0.6c0.3,0.3,0.4,0.6,0.4,1.1c0,0.5-0.2,0.9-0.4,1.1c-0.3,0.3-1,0.6-2.3,0.6c-1.3,0-2-0.3-2.3-0.6
		c-0.3-0.3-0.4-0.6-0.4-1.1c0-0.5,0.1-0.9,0.4-1.2C11-19.7,11.7-20,13-20 M13-20.5c-1.6,0-2.4,0.4-2.8,0.8c-0.4,0.4-0.6,0.9-0.6,1.5
		c0,0.6,0.2,1.1,0.6,1.5c0.4,0.4,1.2,0.8,2.8,0.8c1.6,0,2.4-0.4,2.8-0.8c0.4-0.4,0.6-0.9,0.6-1.5c0-0.6-0.2-1.1-0.6-1.5
		C15.4-20.2,14.6-20.5,13-20.5 M8.9-20.4H2.5v0.6h2.9v3.7H6v-3.7h2.9V-20.4z M-1-16.5c-1.1,0-2.4-0.2-3-0.5v0.6
		c0.7,0.3,1.8,0.5,3,0.5c1.7,0,2.2-0.3,2.5-0.5c0.2-0.2,0.3-0.5,0.3-0.8c0-0.3-0.1-0.5-0.3-0.7c-0.3-0.3-0.7-0.4-2.6-0.5
		c-1.5-0.1-1.9-0.2-2.1-0.3c-0.1-0.1-0.1-0.2-0.1-0.4c0-0.2,0-0.3,0.1-0.4c0.2-0.2,0.6-0.3,1.9-0.3c1,0,2,0.2,2.7,0.5v-0.6
		c-0.6-0.2-1.5-0.4-2.7-0.4c-1.5,0-2.1,0.2-2.4,0.5c-0.2,0.2-0.3,0.5-0.3,0.8c0,0.3,0.1,0.5,0.2,0.7c0.3,0.3,0.8,0.4,2.5,0.5
		c1.7,0.1,2,0.2,2.1,0.3c0.1,0.1,0.1,0.2,0.1,0.4c0,0.2,0,0.3-0.2,0.4C0.8-16.7,0.4-16.5-1-16.5 M-10.7-20.4h-1v4.3h0.7v-3.8
		l4.5,3.8h0.9v-4.3h-0.7v3.7L-10.7-20.4z M-13.5-20.4h-0.7v4.3h0.7V-20.4z"/>
	
		<linearGradient id="SVGID_00000067958993466609095370000011108930616506397086_" gradientUnits="userSpaceOnUse" x1="0" y1="13.8352" x2="31.1653" y2="13.8352">
		<stop  offset="0" style="stop-color:#00B2E3"/>
		<stop  offset="4.505490e-03" style="stop-color:#00B2E3"/>
		<stop  offset="1" style="stop-color:#002E6D"/>
	</linearGradient>
	<path style="fill:url(#SVGID_00000067958993466609095370000011108930616506397086_);" d="M16.2,0c-0.2,0-0.3,0.1-0.3,0.2l-3.6,9.2
		l-11.9,0C0.2,9.4,0.1,9.5,0,9.7c0,0.1,0,0.3,0.1,0.4l9.6,7L6.4,27.2c-0.1,0.2,0,0.3,0.2,0.4c0.1,0,0.1,0,0.2,0c0.1,0,0.2,0,0.3-0.1
		c0.6-0.7,1.2-1.5,1.8-2.2c1.3-1.5,3.1-3.9,5.4-6.3l-4.9,3.6l1.9-5.8c0-0.1,0-0.3-0.1-0.4l-7.6-5.5H13c0.2,0,0.3-0.1,0.3-0.2
		l2.9-7.2l2.9,7.2c0,0.1,0.2,0.2,0.3,0.2l6,0L21,14.1c2.7-1.4,5.4-2.2,7.2-2.9c0.9-0.4,1.8-0.7,2.7-1c0.2-0.1,0.3-0.2,0.2-0.4
		c0-0.2-0.2-0.3-0.3-0.3l-10.6,0l-3.7-9.2C16.5,0.1,16.3,0,16.2,0L16.2,0z"/>
</g>
</svg>
