<?xml version="1.0" encoding="UTF-8"?>
<svg id="Layer_1" data-name="Layer 1" xmlns="http://www.w3.org/2000/svg" version="1.1" viewBox="0 0 400 400">
  <defs>
    <style>
      .cls-1 {
        fill: #fff;
        stroke-width: 0px;
      }
    </style>
  </defs>
  <path class="cls-1" d="M94.49,12.63c-9.73,0-17.59,7.86-17.59,17.59v35.17c0,9.73,7.86,17.59,17.59,17.59h43.96v17.59h-31.32c-17.37,0-32.15,12.69-34.79,29.9l-12.42,82.27c-.38,2.58-.6,5.22-.6,7.86v38.25c0,19.4,15.77,35.17,35.17,35.17h211.02c19.4,0,35.17-15.77,35.17-35.17v-38.25c0-2.64-.22-5.28-.6-7.91l-12.47-82.21c-2.58-17.2-17.37-29.9-34.73-29.9h-119.25v-17.59h43.96c9.73,0,17.59-7.86,17.59-17.59V30.22c0-9.73-7.86-17.59-17.59-17.59h-123.1ZM112.07,39.01h87.93c4.84,0,8.79,3.96,8.79,8.79s-3.96,8.79-8.79,8.79h-87.93c-4.84,0-8.79-3.96-8.79-8.79s3.96-8.79,8.79-8.79ZM94.49,250.04c0-4.84,3.96-8.79,8.79-8.79h193.44c4.84,0,8.79,3.96,8.79,8.79s-3.96,8.79-8.79,8.79H103.28c-4.84,0-8.79-3.96-8.79-8.79ZM120.87,157.71c-7.28,0-13.19-5.9-13.19-13.19s5.9-13.19,13.19-13.19,13.19,5.9,13.19,13.19-5.9,13.19-13.19,13.19ZM186.81,144.52c0,7.28-5.9,13.19-13.19,13.19s-13.19-5.9-13.19-13.19,5.9-13.19,13.19-13.19,13.19,5.9,13.19,13.19ZM147.24,201.68c-7.28,0-13.19-5.9-13.19-13.19s5.9-13.19,13.19-13.19,13.19,5.9,13.19,13.19-5.9,13.19-13.19,13.19ZM239.57,144.52c0,7.28-5.9,13.19-13.19,13.19s-13.19-5.9-13.19-13.19,5.9-13.19,13.19-13.19,13.19,5.9,13.19,13.19ZM200,201.68c-7.28,0-13.19-5.9-13.19-13.19s5.9-13.19,13.19-13.19,13.19,5.9,13.19,13.19-5.9,13.19-13.19,13.19ZM292.32,144.52c0,7.28-5.9,13.19-13.19,13.19s-13.19-5.9-13.19-13.19,5.9-13.19,13.19-13.19,13.19,5.9,13.19,13.19ZM252.76,201.68c-7.28,0-13.19-5.9-13.19-13.19s5.9-13.19,13.19-13.19,13.19,5.9,13.19,13.19-5.9,13.19-13.19,13.19Z"/>
</svg>