<?xml version="1.0" encoding="UTF-8"?>
<svg xmlns="http://www.w3.org/2000/svg" xmlns:xlink="http://www.w3.org/1999/xlink" version="1.1" viewBox="0 0 255 48.7">
  <defs>
    <style>
      .cls-1 {
        fill: url(#linear-gradient-2);
      }

      .cls-1, .cls-2, .cls-3, .cls-4 {
        stroke-width: 0px;
      }

      .cls-1, .cls-3 {
        mix-blend-mode: multiply;
      }

      .cls-2 {
        fill: #be1d37;
      }

      .cls-3 {
        fill: url(#linear-gradient);
        opacity: .8;
      }

      .cls-4 {
        fill: #13456b;
      }

      .cls-5 {
        isolation: isolate;
      }
    </style>
    <linearGradient id="linear-gradient" x1="-572.1" y1="8559.7" x2="-532.1" y2="8559.7" gradientTransform="translate(8204 2757.8) rotate(104.9)" gradientUnits="userSpaceOnUse">
      <stop offset="0" stop-color="#13456b"/>
      <stop offset="0" stop-color="#14446a"/>
      <stop offset=".3" stop-color="#503658"/>
      <stop offset=".5" stop-color="#7f2b4a"/>
      <stop offset=".7" stop-color="#a1233f"/>
      <stop offset=".9" stop-color="#b61e39"/>
      <stop offset="1" stop-color="#be1d37"/>
    </linearGradient>
    <linearGradient id="linear-gradient-2" x1="-572.7" y1="8553.7" x2="-525.8" y2="8553.7" xlink:href="#linear-gradient"/>
  </defs>
  <g class="cls-5">
    <g id="Layer_1" data-name="Layer 1">
      <g>
        <g>
          <path class="cls-4" d="M116.1,14.8c0,.9-.3,1.1-.9,1.1h-2.3s0-2.3,0-2.3h2.3c.6,0,.9.2.9,1.1M117.9,14.8c0-1.4-.4-2.2-1.2-2.5-.3-.1-.8-.2-1.3-.1h-3.9c-.2,0-.4.2-.4.4v6.7c0,.2.2.4.4.4h1.1c.2,0,.4-.2.4-.4v-1.8s2.5,0,2.5,0c.5,0,1,0,1.3-.2.8-.3,1.2-1.1,1.2-2.5M119.6,11.5v8.6c0,.5-.4,1-.9,1h-8.6c-.5,0-1-.4-1-.9v-8.6c0-.5.4-1,.9-1h8.6c.5,0,1,.4,1,.9M122.5,13.6c0-.2-.2-.4-.4-.4h-1.1c-.2,0-.4.2-.4.4v5.6c0,.2.2.4.4.4h1.1c.2,0,.4-.2.4-.4v-5.6ZM126.2,14.7c.5,0,1.1,0,1.4,0,.3,0,.4,0,.4-.3v-.7c0-.2-.1-.4-.3-.4-.2,0-.6-.1-1.4-.1-2.5,0-2.6,2.3-2.7,2.7,0,.4,0,.7,0,1.1,0,.4.2,2.7,2.7,2.7.8,0,1.3-.1,1.4-.1.2,0,.3-.2.3-.4v-.7c0-.3-.1-.3-.4-.3-.4,0-1,0-1.4,0-.6,0-.9-.3-.9-1.2,0-.3,0-.7,0-1,0-.9.3-1.2.9-1.2M134.2,19.6h-1.4c-.2,0-.4-.2-.5-.3l-1.6-2.1v2c0,.2-.2.4-.4.4h-1.1c-.2,0-.4-.2-.4-.4v-7.7c0-.2.1-.4.4-.4h1.1c.2,0,.4.2.4.4v4.1s1.7-2.1,1.7-2.1c.1-.1.2-.2.4-.2h1.2c.3,0,.4.2.2.5l-2.2,2.6,2.2,2.9c.2.2,0,.4-.2.4"/>
          <path class="cls-2" d="M142.2,15.4v3.8c0,.2-.2.4-.4.4h-1.1c-.2,0-.4-.2-.4-.4v-3.7c0-.5,0-.8-1-.8s-.7,0-1.1.1v4.4c0,.2-.2.4-.4.4h-1.1c-.2,0-.4-.2-.4-.4v-5.3c0-.1,0-.3.2-.4.4-.1,1.5-.4,2.5-.4,2.2,0,2.9.8,2.9,2.3M168.4,19c0,2-.8,2.9-2.9,2.9-.8,0-1.5,0-2-.3-.2,0-.3-.2-.3-.4v-.6c0-.2.1-.4.4-.3.5.1,1.2.2,1.8.2,1,0,1.2-.2,1.2-1.1-.4,0-.8.1-1.2.1-1.9,0-2.6-.6-2.6-2.3v-3.7c0-.2.2-.4.4-.4h1.1c.2,0,.4.2.4.4v3.7c0,.6.3.8,1.1.8s.6,0,.9-.1v-4.4c0-.2.2-.4.4-.4h1.1c.2,0,.4.2.4.4v5.5ZM152.4,17.2c-.3.1-.8.2-1.3.2h-2.5s0,1.8,0,1.8c0,.2-.2.4-.4.4h-1.1c-.2,0-.4-.2-.4-.4v-6.7c0-.2.1-.4.3-.4h3.9c.5,0,1,0,1.3.1.8.3,1.2,1.1,1.2,2.5,0,1.4-.4,2.2-1.2,2.5M154.2,10.5h-8.6c-.5,0-1,.5-1,1v8.6c0,.5.5,1,1,.9h8.6c.5,0,1-.5.9-1v-8.6c0-.5-.5-1-1-.9M150.8,13.5h-2.3s0,2.3,0,2.3h2.3c.6,0,.9-.2.9-1.1,0-.9-.3-1.1-.9-1.1M159.8,18.1c-.1,0-.7,0-.9,0-.7,0-1-.2-1-.8s.3-.7.8-.7c.3,0,.7,0,1.1,0v1.5ZM159,13.1c-.7,0-1.4.1-1.9.2-.2,0-.3.2-.3.4v.6c0,.3.2.4.4.3.5,0,1-.1,1.6-.1s1,.2,1,.7v.3c-.6,0-1.3,0-1.9,0-1,.2-1.7.8-1.7,2,0,1.4.8,2,2.7,2,1,0,1.8,0,2.4-.2.2,0,.3-.2.3-.5v-3.6c0-1.2-.2-2.2-2.6-2.2"/>
        </g>
        <path class="cls-4" d="M114.1,27.6c-4.2,0-6.8,2.2-6.8,5.7v5.4c0,3.5,2.6,5.6,6.8,5.6s6.8-2.1,6.8-5.6v-5.4c0-3.5-2.5-5.7-6.8-5.7ZM118.8,38.7c0,2.3-1.8,3.8-4.7,3.8s-4.7-1.4-4.7-3.8v-5.4c0-2.4,1.8-3.8,4.7-3.8s4.7,1.4,4.7,3.8v5.4ZM104.9,39.2l-.8-.2c-.4-.1-.6,0-.8.4-.6,2.1-2.1,3.2-4.7,3.2s-4.6-1.6-4.6-4.2v-4.7c0-2.6,1.5-4.1,4.7-4.1s3.9,1,4.5,3c.2.4.3.5.8.4l.8-.3c.4-.1.5-.3.4-.8-.8-2.5-2.7-4.1-6.4-4.1s-6.7,2.3-6.7,6v4.6c0,3.8,2.2,6.1,6.6,6.1s5.7-1.5,6.6-4.3c.2-.5,0-.6-.4-.8ZM130.7,27.6c-2.8,0-4.5.6-5.7,1-.9.4-1.2.7-1.2,1.7v13c0,.4.2.6.6.6h1c.4,0,.6-.1.6-.6v-12.4c0-.3,0-.6.5-.8.9-.3,2.3-.7,4.1-.7,3,0,4.4,1.4,4.4,4.2v9.6c0,.4.2.6.6.6h1c.4,0,.6-.1.6-.6v-9.7c0-3.8-1.9-6-6.1-6ZM184.6,39.2l-.8-.2c-.4-.1-.6,0-.8.4-.6,2.1-2.1,3.2-4.7,3.2s-4.6-1.6-4.6-4.2v-4.7c0-2.6,1.5-4.1,4.7-4.1s3.9,1,4.5,3c.2.4.3.5.8.4l.8-.3c.4-.1.5-.3.4-.8-.8-2.5-2.7-4.1-6.4-4.1s-6.7,2.3-6.7,6v4.6c0,3.8,2.2,6.1,6.6,6.1s5.7-1.5,6.6-4.3c.2-.5,0-.6-.4-.8ZM195.6,30c.4,0,.6-.2.6-.6v-.8c0-.4-.1-.6-.6-.6h-4.4v-3.5c0-.4-.2-.6-.6-.6h-1c-.4,0-.6.1-.6.6v3.5h-2.9c-.4,0-.6.1-.6.6v.8c0,.4.1.6.6.6h2.9v8.1c0,5,1.7,6.4,6.5,6.3.4,0,.6-.1.6-.6v-.8c0-.4-.2-.6-.6-.6-3.4,0-4.4-.7-4.4-4.4v-8h4.4ZM147,27.6c-2.8,0-4.5.6-5.7,1-.9.4-1.2.7-1.2,1.7v13c0,.4.2.6.6.6h1c.4,0,.6-.1.6-.6v-12.4c0-.3,0-.6.5-.8.9-.3,2.3-.7,4.1-.7,3,0,4.4,1.4,4.4,4.2v9.6c0,.4.2.6.6.6h1c.4,0,.6-.1.6-.6v-9.7c0-3.8-1.9-6-6.1-6ZM162.7,27.6c-4.5,0-6.8,2.4-6.8,6.5v4c0,3.7,2.1,6.2,6.7,6.2s5.6-1.4,6.6-3.3c.2-.4.2-.7-.2-.9l-.6-.3c-.4-.2-.6-.2-.9.2-.9,1.5-2.3,2.6-4.8,2.6s-4.6-1.6-4.6-4.2v-1.8h10.7c.7,0,.9-.3.9-.9v-1.7c0-3.7-2.2-6.4-6.9-6.4ZM167.5,34.9h-9.5v-1.1c0-2.7,1.6-4.4,4.8-4.4s4.8,1.7,4.8,4.4v1.1Z"/>
        <g>
          <path class="cls-3" d="M58.8,9.5c-.3,5.4,3.8,9.9,9,10.4,1.6.1,3,1.1,3.6,2.6,1.1,2.9,1.1,7.2,0,8.4-2,1.1-3.4,3.3-3.3,5.7s2.7,5.7,5.9,5.8,6.5-2.7,6.4-6.3c0-2.7-1.8-4.9-4.2-5.7-.6-.2-2.6-.4-3.2-6.1,0-.7-.1-1.7,0-2.8.2-1.5.9-3,2.1-4s2-2.1,2.6-3.4c.6-1.7,5.2.6,7,2.3s.6.9.6,1.5c0,1.7,1,3.2,2.6,4s4.3.4,5.6-1.3,1.1-5.4-1.2-6.8c-1.7-1.1-3.8-.9-5.3.3-.4.3-1.3,1.5-5.2-.5-.7-.4-1.8-1-2.5-1.9s-.7-1.3-.7-2h0c-.1-5.7-5.1-10.2-10.9-9.7s-8.8,4.5-9,9.4Z"/>
          <path class="cls-1" d="M79.9,46.8c5.8-3.6,7.4-11.2,3.7-16.8-1.4-3.2,4.4-8.1,7.8-9.3.7-.3,1.6-.2,2.3,0,2.3,1,5,.8,7.2-.7s4-6.4,2.1-9.7-6.9-4.8-10.4-2.4c-2.7,1.8-3.8,5-3.1,7.9.1.8,1.3,2.9-4.2,7.1-1.5,1.2-4.4,3.2-7.4,2.5-1.8-.7-3.9-1-5.8-.7-2.2.5-2.8-6.4-2-9s.4-.8.8-1c1.6-1,2.6-2.7,2.6-4.8,0-2.9-2.4-5.4-5.3-5.5s-5.8,2.4-5.8,5.6c0,2.4,1.6,4.4,3.7,5.2.6.2,2.3.4,2.8,5.6,0,1,.1,2.4-.3,3.8s-.8,1.5-1.6,2h0c-5.6,3.7-7,11.3-3.1,16.8s10.6,6.5,15.9,3.3Z"/>
        </g>
      </g>
    </g>
  </g>
</svg>