<?xml version="1.0" encoding="UTF-8"?>
<svg id="Layer_1" data-name="Layer 1" xmlns="http://www.w3.org/2000/svg" version="1.1" viewBox="0 0 400 400">
  <defs>
    <style>
      .cls-1 {
        fill: #fff;
        stroke-width: 0px;
      }
    </style>
  </defs>
  <path class="cls-1" d="M243.85,223.48c5.26-17.48,16.17-32.39,26.97-47.25h0c2.85-3.89,5.7-7.78,8.44-11.73,10.85-15.62,17.21-34.53,17.21-54.98,0-53.33-43.19-96.52-96.47-96.52s-96.47,43.19-96.47,96.47c0,20.44,6.36,39.41,17.21,54.98,2.74,3.95,5.59,7.84,8.44,11.73h0c10.85,14.85,21.76,29.82,26.97,47.25h87.7v.05ZM200,293.64c24.23,0,43.85-19.62,43.85-43.85v-8.77h-87.7v8.77c0,24.23,19.62,43.85,43.85,43.85ZM156.15,109.47c0,4.82-3.95,8.77-8.77,8.77s-8.77-3.95-8.77-8.77c0-33.93,27.46-61.39,61.39-61.39,4.82,0,8.77,3.95,8.77,8.77s-3.95,8.77-8.77,8.77c-24.23,0-43.85,19.62-43.85,43.85Z"/>
</svg>