<?xml version="1.0" encoding="UTF-8"?>
<svg id="Layer_1" data-name="Layer 1" xmlns="http://www.w3.org/2000/svg" version="1.1" viewBox="0 0 255 48.7">
  <defs>
    <style>
      .cls-1 {
        fill: #b71e4e;
      }

      .cls-1, .cls-2 {
        stroke-width: 0px;
      }

      .cls-2 {
        fill: #14365d;
      }
    </style>
  </defs>
  <path class="cls-2" d="M39.5,6.4c5.1,0,10.2,0,15.4,0,2,0,3.5,1.5,3.5,3.5,0,10.2,0,20.3,0,30.5,0,.9-.2,1.7-.8,2.4-.7.8-1.5,1.2-2.6,1.2-10.3,0-20.6,0-30.9,0-1.9,0-3.3-1.5-3.3-3.4,0-10.1,0-20.3,0-30.4,0-2,1.1-3.2,2.2-3.5.5-.1.9-.2,1.4-.2,5.1,0,10.1,0,15.2,0ZM34.7,30.8c.3,0,.5,0,.7,0,2.9,0,5.7,0,8.6,0,.8,0,1.5,0,2.3,0,2.7-.2,4.5-1.6,5.4-4.1,1.2-3.3,1.1-6.7.2-10.1-.5-1.7-1.4-3.1-3-4-1.2-.7-2.6-.8-4-.8-5.2,0-10.3,0-15.5,0-.7,0-1.2.4-1.3,1,0,.3,0,.7,0,1,0,7.7,0,15.4,0,23.1,0,.2,0,.4,0,.6.1.7.6,1.1,1.3,1.1,1.3,0,2.6,0,4,0,.9,0,1.4-.5,1.4-1.4,0-1.9,0-3.8,0-5.7,0-.2,0-.4,0-.7Z"/>
  <path class="cls-1" d="M167.1,6.4c5.1,0,10.2,0,15.4,0,2,0,3.4,1.4,3.5,3.4,0,.5,0,1,0,1.5,0,9.6,0,19.2,0,28.8,0,1.1-.2,2-1,2.8-.7.7-1.5,1-2.4,1-10.2,0-20.4,0-30.6,0-2.1,0-3.6-1.5-3.6-3.6,0-10.2,0-20.4,0-30.6,0-1.9,1.5-3.4,3.4-3.4,5.1,0,10.3,0,15.4,0ZM162.3,30.8c.9,0,1.8,0,2.6,0,3,0,6.1,0,9.1-.1,2.2,0,3.8-1.3,4.8-3.2.9-1.7,1.1-3.6,1.2-5.6,0-2.2,0-4.3-.9-6.3-.7-1.5-1.7-2.7-3.4-3.3-1.2-.4-2.4-.5-3.6-.5-5,0-9.9,0-14.9,0-1.2,0-1.7.5-1.7,1.7,0,7.5,0,15,0,22.5,0,.4,0,.9,0,1.3,0,.9.6,1.5,1.5,1.5,1.2,0,2.5,0,3.7,0,1,0,1.5-.5,1.5-1.5,0-1.5,0-3,0-4.5,0-.6,0-1.1,0-1.8Z"/>
  <path class="cls-1" d="M226.7,38.1c-.9.1-1.7.2-2.5.3-2.5.2-4.9.2-7.3-.8-1.8-.7-2.9-2-3.3-3.8-.2-1-.4-2-.4-3,0-4.5,0-9,0-13.4,0-.9.8-1.5,1.5-1.5,1.1,0,2.2,0,3.3,0,.9,0,1.6.5,1.6,1.6,0,4.3,0,8.6,0,12.9,0,.3,0,.6,0,.9.2,1.3,1,2,2.3,2.2,1.5.2,2.9,0,4.4-.2.4,0,.5-.2.5-.6,0-5,0-10.1,0-15.1,0-.9.5-1.7,1.6-1.7,1.1,0,2.2,0,3.4,0,.9,0,1.4.5,1.4,1.5,0,6.6,0,13.2,0,19.7,0,1.7-.2,3.3-.8,4.8-.8,2.1-2.3,3.6-4.5,4.3-2.2.7-4.4.8-6.6.7-1.7,0-3.4-.3-5.1-.8-1.2-.3-1.4-.6-1.4-1.8,0-.7,0-1.3,0-2,0-.8.5-1,1.3-.9,2.4.5,4.8.6,7.2.6.5,0,1.1,0,1.6-.2,1.1-.2,1.7-.9,1.8-2,0-.5,0-1,.1-1.7Z"/>
  <path class="cls-2" d="M98.6,24.1c.1-.1.2-.2.3-.3,1.9-2.4,3.9-4.7,5.8-7.1.4-.5.9-.8,1.6-.8,1.4,0,2.7,0,4.1,0,.2,0,.4,0,.6.1.5.2.7.5.5,1-.2.4-.5.7-.7,1-2.4,2.8-4.7,5.5-7.1,8.3-.3.3,0,.5,0,.7,1.9,2.5,3.8,5,5.7,7.4.7.9,1.3,1.7,2,2.6.2.2.3.6.2.9,0,.4-.5.4-.9.4-1.7,0-3.3,0-5,0-.6,0-1-.2-1.3-.7-1.1-1.4-2.1-2.8-3.1-4.2-.8-1.1-1.6-2.2-2.5-3.3,0,0-.2-.2-.4-.3,0,.3,0,.5,0,.6,0,2.1,0,4.2,0,6.3,0,1.1-.5,1.6-1.6,1.6-1.1,0-2.1,0-3.2,0-1.2,0-1.7-.5-1.7-1.7,0-4.2,0-8.4,0-12.6,0-4.7,0-9.5,0-14.2,0-1.1.5-1.6,1.6-1.6,1.1,0,2.1,0,3.2,0,1.1,0,1.6.5,1.6,1.6,0,4.5,0,9,0,13.4,0,.2,0,.4,0,.5,0,0,0,0,.1,0Z"/>
  <path class="cls-1" d="M119,27.6c0-3.1,0-6.1,0-9.2,0-1,.2-1.4,1.2-1.6,3.4-.9,6.9-1.3,10.5-1.1,2,.1,4,.6,5.8,1.6,1.2.8,2.1,1.9,2.4,3.3.2.9.4,1.8.4,2.7,0,4.5,0,9,0,13.4,0,1-.4,1.7-1.7,1.7-1.1,0-2.3,0-3.4,0-.9,0-1.4-.5-1.4-1.4,0-4.5,0-9.1,0-13.6,0-1.1-.4-1.8-1.3-2.1-.4-.1-.8-.2-1.2-.2-1.5,0-3.1,0-4.6.3-.1,0-.2.2-.3.4,0,0,0,0,0,.1,0,4.9,0,9.8,0,14.7,0,.5,0,1.1-.5,1.4-.3.2-.6.3-.9.4-1.1,0-2.3,0-3.5,0-1.2,0-1.6-.4-1.6-1.6,0-3.1,0-6.2,0-9.2Z"/>
  <path class="cls-1" d="M202.6,24.1c0-.7,0-1.4-.2-2.1-.2-.9-1-1.3-1.8-1.3-1.5,0-3.1,0-4.6,0-1,0-1.9.2-2.9.3-1,.1-1.4-.3-1.4-1.3,0-.6,0-1.2,0-1.8,0-1,.3-1.4,1.3-1.6,1-.2,2.1-.4,3.1-.6,2.3-.3,4.6-.3,6.9,0,1.8.3,3.4.9,4.5,2.4.7,1,1,2.2,1.1,3.4,0,.8,0,1.6,0,2.4,0,4,0,8,0,12,0,1.2-.5,1.8-1.6,2-3.3.6-6.6.7-9.9.5-1.4,0-2.7-.3-4-.9-1.6-.8-2.7-2-3.2-3.7-.5-1.9-.4-3.7.2-5.5.8-2.2,2.5-3.3,4.7-3.9,2-.5,4.1-.6,6.1-.5.5,0,.9,0,1.5,0ZM202.5,28.3c-1.2,0-2.2,0-3.3,0-.4,0-.8,0-1.2.1-2.3.4-2.7,2.3-2.1,4,.2.7.7,1.1,1.4,1.3.4.1.9.2,1.4.2,1.2,0,2.3,0,3.5-.1.3,0,.4-.1.4-.4,0-1.3,0-2.7,0-4,0-.3,0-.7,0-1.1Z"/>
  <path class="cls-2" d="M82.6,15.6c1.5.2,3.1.4,4.6.6,1,.2,1.3.6,1.3,1.6,0,.7,0,1.4,0,2.1,0,1-.3,1.3-1.3,1.2-1.3,0-2.6-.2-3.9-.2-.6,0-1.2,0-1.8,0-1.4.2-2.1,1.1-2.4,2.4-.4,1.6-.4,3.3-.3,5,0,1,.2,2,.4,2.9.4,1.4,1.4,2.2,2.8,2.2,1.7,0,3.3-.1,5-.2,1.1,0,1.5.2,1.5,1.3,0,.8,0,1.6,0,2.3,0,.7-.3,1.2-1,1.3-1.1.2-2.2.4-3.2.5-1.8.2-3.6.2-5.4-.4-2.7-.8-4.5-2.6-5.4-5.1-1.4-3.9-1.4-8,0-11.9,1.1-3.2,3.5-5.1,7-5.5.7,0,1.4-.1,2.1-.2h0Z"/>
  <path class="cls-2" d="M62.4,27.2c0-3.2,0-6.5,0-9.7,0-.9.4-1.4,1.3-1.5,1.3,0,2.5,0,3.8,0,.9,0,1.3.6,1.3,1.5,0,6.5,0,13,0,19.6,0,.9-.5,1.5-1.4,1.5-1.2,0-2.4,0-3.7,0-.8,0-1.4-.6-1.4-1.3,0-3.3,0-6.6,0-9.9,0,0,0,0,0,0Z"/>
  <path class="cls-2" d="M34.7,17.2c1.8,0,3.5,0,5.2,0,1,0,2.1,0,3.1,0,1.5,0,2.2.6,2.5,2,.3,1.3.3,2.7,0,4.1-.3,1.2-1.1,1.9-2.4,1.9-2.7,0-5.4,0-8.1,0-.1,0-.3-.2-.3-.3,0-2.6,0-5.1,0-7.8Z"/>
  <path class="cls-1" d="M166.8,17.3c1.3,0,2.5,0,3.8,0,1.5,0,2.3.7,2.6,2.1.3,1.2.2,2.4,0,3.7-.3,1.4-1,2.1-2.5,2.2-2.6,0-5.3,0-7.9,0-.3,0-.4,0-.4-.3,0-2.4,0-4.9,0-7.3,0-.4.2-.4.5-.4,1.3,0,2.7,0,4,0,0,0,0,0,0,0Z"/>
</svg>