<?xml version="1.0" encoding="UTF-8"?>
<svg id="Layer_1" data-name="Layer 1" xmlns="http://www.w3.org/2000/svg" version="1.1" viewBox="0 0 400 400">
  <defs>
    <style>
      .cls-1 {
        fill: #fff;
        stroke-width: 0px;
      }
    </style>
  </defs>
  <path class="cls-1" d="M43.28,26.17c0-7.3,5.87-13.17,13.17-13.17h24.97c12.07,0,22.78,7.03,27.77,17.56h225.57c14.43,0,24.97,13.72,21.18,27.66l-22.5,83.59c-4.67,17.23-20.31,29.25-38.14,29.25h-158.34l2.96,15.64c1.21,6.2,6.64,10.7,12.95,10.7h158.23c7.3,0,13.17,5.87,13.17,13.17s-5.87,13.17-13.17,13.17h-158.23c-18.99,0-35.29-13.5-38.8-32.11l-28.32-148.73c-.38-2.09-2.2-3.57-4.34-3.57h-24.97c-7.3,0-13.17-5.87-13.17-13.17ZM113.53,267.66c0-14.55,11.79-26.34,26.34-26.34s26.34,11.79,26.34,26.34-11.79,26.34-26.34,26.34-26.34-11.79-26.34-26.34h0ZM297.93,241.31c14.55,0,26.34,11.79,26.34,26.34s-11.79,26.34-26.34,26.34h0c-14.55,0-26.34-11.79-26.34-26.34s11.79-26.34,26.34-26.34Z"/>
</svg>